<svg xmlns="http://www.w3.org/2000/svg" width="154.172" height="154.173"><circle fill="none" stroke="#FF4612" stroke-miterlimit="10" cx="77.086" cy="77.086" r="76.586"/><g fill="none" stroke="#FF4612" stroke-miterlimit="10"><circle cx="81.017" cy="125.092" r=".469"/><circle cx="88.163" cy="125.092" r=".469"/><circle cx="95.309" cy="125.092" r=".469"/><circle cx="73.871" cy="125.092" r=".469"/><circle cx="82.013" cy="29.161" r=".469"/><circle cx="74.867" cy="29.161" r=".469"/><path d="M114.248 41.742v3.586M114.248 41.732v-3.586M114.248 41.736h3.565M114.248 41.736h-3.564M102.063 72.706h7.436M102.063 72.706h-7.439M102.063 82.407h7.436M102.063 82.407h-7.439M102.063 92.109h7.436M102.063 92.109h-7.439M102.063 101.811h3.561M102.063 101.811h-3.564M40.346 73.006v3.586M40.346 72.997v-3.586M40.346 73h3.564M40.346 73h-3.565M44.582 48.319h4M70.957 50.528h19.75M70.957 59.465h5M70.957 68.403h3.904M44.582 112.278l-8.75-8.5 9.875-9.875M62.082 113.528h7.125"/><path d="M37.932 113.147l3.197 3.2 33.646-33.245 1.166-8.287-8.154 1.817"/><path d="M37.932 113.147l-3.071-3.072 32.848-33.25 6.79 6.203M36.42 112.219l-3.477 3.477 1.239 1.239"/><path d="M38.715 114.515l-3.477 3.476-1.239-1.239M59.841 40.968h40.991v10.935M60.332 40.968v43.185M61.684 96.153h11.787M111.216 115.07l10.367-10.334V59.465H81.422"/><path d="M81.916 59.465v55.469h29.166V104.57h10.332"/></g></svg>