<svg xmlns="http://www.w3.org/2000/svg" width="479.166" height="463.804"><circle fill="#D8D8D8" cx="47.555" cy="93.642" r="1.468"/><circle fill="#D8D8D8" cx="62.917" cy="78.28" r="1.468"/><circle fill="#D8D8D8" cx="62.917" cy="93.642" r="1.468"/><circle fill="#D8D8D8" cx="32.192" cy="109.004" r="1.468"/><circle fill="#D8D8D8" cx="47.555" cy="109.004" r="1.468"/><circle fill="#D8D8D8" cx="62.917" cy="109.004" r="1.468"/><circle fill="#D8D8D8" cx="93.642" cy="47.555" r="1.468"/><circle fill="#D8D8D8" cx="109.004" cy="47.555" r="1.468"/><circle fill="#D8D8D8" cx="78.279" cy="62.917" r="1.468"/><circle fill="#D8D8D8" cx="93.642" cy="62.917" r="1.468"/><circle fill="#D8D8D8" cx="109.004" cy="62.917" r="1.468"/><circle fill="#D8D8D8" cx="78.279" cy="78.28" r="1.468"/><circle fill="#D8D8D8" cx="93.642" cy="78.28" r="1.468"/><circle fill="#D8D8D8" cx="109.004" cy="78.28" r="1.468"/><circle fill="#D8D8D8" cx="78.279" cy="93.642" r="1.468"/><circle fill="#D8D8D8" cx="93.642" cy="93.642" r="1.468"/><circle fill="#D8D8D8" cx="109.004" cy="93.642" r="1.468"/><circle fill="#D8D8D8" cx="124.366" cy="47.555" r="1.468"/><circle fill="#D8D8D8" cx="124.366" cy="62.917" r="1.468"/><circle fill="#D8D8D8" cx="124.366" cy="78.28" r="1.468"/><circle fill="#D8D8D8" cx="124.366" cy="93.642" r="1.468"/><circle fill="#D8D8D8" cx="78.279" cy="109.004" r="1.468"/><circle fill="#D8D8D8" cx="93.642" cy="109.004" r="1.468"/><circle fill="#D8D8D8" cx="109.004" cy="109.004" r="1.468"/><circle fill="#D8D8D8" cx="124.366" cy="109.004" r="1.468"/><circle fill="#D8D8D8" cx="109.004" cy="32.193" r="1.468"/><circle fill="#D8D8D8" cx="124.366" cy="32.193" r="1.468"/><circle fill="#D8D8D8" cx="139.729" cy="47.555" r="1.468"/><circle fill="#D8D8D8" cx="155.09" cy="47.555" r="1.468"/><circle fill="#D8D8D8" cx="170.453" cy="47.555" r="1.468"/><circle fill="#D8D8D8" cx="139.729" cy="62.917" r="1.468"/><circle fill="#D8D8D8" cx="155.09" cy="62.917" r="1.468"/><circle fill="#D8D8D8" cx="170.453" cy="62.917" r="1.468"/><circle fill="#D8D8D8" cx="139.729" cy="78.28" r="1.468"/><circle fill="#D8D8D8" cx="155.09" cy="78.28" r="1.468"/><circle fill="#D8D8D8" cx="170.453" cy="78.28" r="1.468"/><circle fill="#D8D8D8" cx="139.729" cy="93.642" r="1.468"/><circle fill="#D8D8D8" cx="155.09" cy="93.642" r="1.468"/><circle fill="#D8D8D8" cx="170.453" cy="93.642" r="1.468"/><circle fill="#D8D8D8" cx="185.815" cy="47.555" r="1.468"/><circle fill="#D8D8D8" cx="185.815" cy="62.917" r="1.468"/><circle fill="#D8D8D8" cx="185.815" cy="78.28" r="1.468"/><circle fill="#D8D8D8" cx="185.815" cy="93.642" r="1.468"/><circle fill="#D8D8D8" cx="139.729" cy="109.004" r="1.468"/><circle fill="#D8D8D8" cx="155.09" cy="109.004" r="1.468"/><circle fill="#D8D8D8" cx="170.453" cy="109.004" r="1.468"/><circle fill="#D8D8D8" cx="185.815" cy="109.004" r="1.468"/><circle fill="#D8D8D8" cx="139.729" cy="16.83" r="1.468"/><circle fill="#D8D8D8" cx="155.09" cy="16.83" r="1.468"/><circle fill="#D8D8D8" cx="170.453" cy="16.83" r="1.468"/><circle fill="#D8D8D8" cx="139.729" cy="32.193" r="1.468"/><circle fill="#D8D8D8" cx="155.09" cy="32.193" r="1.468"/><circle fill="#D8D8D8" cx="170.453" cy="32.193" r="1.468"/><circle fill="#D8D8D8" cx="185.815" cy="1.468" r="1.468"/><circle fill="#D8D8D8" cx="170.454" cy="1.468" r="1.468"/><circle fill="#D8D8D8" cx="185.815" cy="16.83" r="1.468"/><circle fill="#D8D8D8" cx="185.815" cy="32.193" r="1.468"/><circle fill="#D8D8D8" cx="201.177" cy="47.555" r="1.468"/><circle fill="#D8D8D8" cx="216.54" cy="47.555" r="1.468"/><circle fill="#D8D8D8" cx="231.902" cy="47.555" r="1.468"/><circle fill="#D8D8D8" cx="201.177" cy="62.917" r="1.468"/><circle fill="#D8D8D8" cx="216.54" cy="62.917" r="1.468"/><circle fill="#D8D8D8" cx="231.902" cy="62.917" r="1.468"/><circle fill="#D8D8D8" cx="201.177" cy="78.28" r="1.468"/><circle fill="#D8D8D8" cx="216.54" cy="78.28" r="1.468"/><circle fill="#D8D8D8" cx="231.902" cy="78.28" r="1.468"/><circle fill="#D8D8D8" cx="201.177" cy="93.642" r="1.468"/><circle fill="#D8D8D8" cx="216.54" cy="93.642" r="1.468"/><circle fill="#D8D8D8" cx="231.902" cy="93.642" r="1.468"/><circle fill="#D8D8D8" cx="247.264" cy="47.555" r="1.468"/><circle fill="#D8D8D8" cx="247.264" cy="62.917" r="1.468"/><circle fill="#D8D8D8" cx="247.264" cy="78.28" r="1.468"/><circle fill="#D8D8D8" cx="247.264" cy="93.642" r="1.468"/><circle fill="#D8D8D8" cx="201.177" cy="109.004" r="1.468"/><circle fill="#D8D8D8" cx="216.54" cy="109.004" r="1.468"/><circle fill="#D8D8D8" cx="231.902" cy="109.004" r="1.468"/><circle fill="#D8D8D8" cx="247.264" cy="109.004" r="1.468"/><circle fill="#D8D8D8" cx="201.177" cy="1.468" r="1.468"/><circle fill="#D8D8D8" cx="216.54" cy="1.468" r="1.468"/><circle fill="#D8D8D8" cx="231.902" cy="1.468" r="1.468"/><circle fill="#D8D8D8" cx="201.177" cy="16.83" r="1.468"/><circle fill="#D8D8D8" cx="216.54" cy="16.83" r="1.468"/><circle fill="#D8D8D8" cx="231.902" cy="16.83" r="1.468"/><circle fill="#D8D8D8" cx="201.177" cy="32.193" r="1.468"/><circle fill="#D8D8D8" cx="216.54" cy="32.193" r="1.468"/><circle fill="#D8D8D8" cx="231.902" cy="32.193" r="1.468"/><circle fill="#D8D8D8" cx="247.264" cy="1.468" r="1.468"/><circle fill="#D8D8D8" cx="247.264" cy="16.83" r="1.468"/><circle fill="#D8D8D8" cx="247.264" cy="32.193" r="1.468"/><circle fill="#D8D8D8" cx="262.626" cy="47.555" r="1.468"/><circle fill="#D8D8D8" cx="277.989" cy="47.555" r="1.468"/><circle fill="#D8D8D8" cx="262.626" cy="62.917" r="1.468"/><circle fill="#D8D8D8" cx="277.989" cy="62.917" r="1.468"/><circle fill="#D8D8D8" cx="262.626" cy="78.28" r="1.468"/><circle fill="#D8D8D8" cx="277.989" cy="78.28" r="1.468"/><circle fill="#D8D8D8" cx="262.626" cy="93.642" r="1.468"/><circle fill="#D8D8D8" cx="277.989" cy="93.642" r="1.468"/><circle fill="#D8D8D8" cx="293.351" cy="47.555" r="1.468"/><circle fill="#D8D8D8" cx="293.351" cy="62.917" r="1.468"/><circle fill="#D8D8D8" cx="293.351" cy="78.28" r="1.468"/><circle fill="#D8D8D8" cx="293.351" cy="93.642" r="1.468"/><circle fill="#D8D8D8" cx="262.626" cy="109.004" r="1.468"/><circle fill="#D8D8D8" cx="277.989" cy="109.004" r="1.468"/><circle fill="#D8D8D8" cx="293.351" cy="109.004" r="1.468"/><circle fill="#D8D8D8" cx="262.626" cy="1.468" r="1.468"/><circle fill="#D8D8D8" cx="277.989" cy="1.468" r="1.468"/><circle fill="#D8D8D8" cx="262.626" cy="16.83" r="1.468"/><circle fill="#D8D8D8" cx="277.989" cy="16.83" r="1.468"/><circle fill="#D8D8D8" cx="262.626" cy="32.193" r="1.468"/><circle fill="#D8D8D8" cx="277.989" cy="32.193" r="1.468"/><circle fill="#D8D8D8" cx="293.351" cy="1.468" r="1.468"/><circle fill="#D8D8D8" cx="308.713" cy="1.468" r="1.468"/><circle fill="#D8D8D8" cx="293.351" cy="16.83" r="1.468"/><circle fill="#D8D8D8" cx="293.351" cy="32.193" r="1.468"/><circle fill="#D8D8D8" cx="308.713" cy="47.555" r="1.468"/><circle fill="#D8D8D8" cx="324.075" cy="47.555" r="1.468"/><circle fill="#D8D8D8" cx="339.438" cy="47.555" r="1.468"/><circle fill="#D8D8D8" cx="308.713" cy="62.917" r="1.468"/><circle fill="#D8D8D8" cx="324.075" cy="62.917" r="1.468"/><circle fill="#D8D8D8" cx="339.438" cy="62.917" r="1.468"/><circle fill="#D8D8D8" cx="308.713" cy="78.28" r="1.468"/><circle fill="#D8D8D8" cx="324.075" cy="78.28" r="1.468"/><circle fill="#D8D8D8" cx="339.438" cy="78.28" r="1.468"/><circle fill="#D8D8D8" cx="308.713" cy="93.642" r="1.468"/><circle fill="#D8D8D8" cx="324.075" cy="93.642" r="1.468"/><circle fill="#D8D8D8" cx="339.438" cy="93.642" r="1.468"/><circle fill="#D8D8D8" cx="354.8" cy="47.555" r="1.468"/><circle fill="#D8D8D8" cx="354.8" cy="62.917" r="1.468"/><circle fill="#D8D8D8" cx="354.8" cy="78.28" r="1.468"/><circle fill="#D8D8D8" cx="354.8" cy="93.642" r="1.468"/><circle fill="#D8D8D8" cx="308.713" cy="109.004" r="1.468"/><circle fill="#D8D8D8" cx="324.075" cy="109.004" r="1.468"/><circle fill="#D8D8D8" cx="339.438" cy="109.004" r="1.468"/><circle fill="#D8D8D8" cx="354.8" cy="109.004" r="1.468"/><circle fill="#D8D8D8" cx="308.713" cy="16.83" r="1.468"/><circle fill="#D8D8D8" cx="324.075" cy="16.83" r="1.468"/><circle fill="#D8D8D8" cx="339.438" cy="16.83" r="1.468"/><circle fill="#D8D8D8" cx="308.713" cy="32.193" r="1.468"/><circle fill="#D8D8D8" cx="324.075" cy="32.193" r="1.468"/><circle fill="#D8D8D8" cx="339.438" cy="32.193" r="1.468"/><circle fill="#D8D8D8" cx="354.8" cy="32.193" r="1.468"/><circle fill="#D8D8D8" cx="370.162" cy="47.555" r="1.468"/><circle fill="#D8D8D8" cx="385.524" cy="47.555" r="1.468"/><circle fill="#D8D8D8" cx="370.162" cy="62.917" r="1.468"/><circle fill="#D8D8D8" cx="385.524" cy="62.917" r="1.468"/><circle fill="#D8D8D8" cx="400.887" cy="62.917" r="1.468"/><circle fill="#D8D8D8" cx="370.162" cy="78.28" r="1.468"/><circle fill="#D8D8D8" cx="385.524" cy="78.28" r="1.468"/><circle fill="#D8D8D8" cx="400.887" cy="78.28" r="1.468"/><circle fill="#D8D8D8" cx="370.162" cy="93.642" r="1.468"/><circle fill="#D8D8D8" cx="385.524" cy="93.642" r="1.468"/><circle fill="#D8D8D8" cx="400.887" cy="93.642" r="1.468"/><circle fill="#D8D8D8" cx="416.249" cy="78.28" r="1.469"/><circle fill="#D8D8D8" cx="416.249" cy="93.642" r="1.469"/><circle fill="#D8D8D8" cx="370.162" cy="109.004" r="1.468"/><circle fill="#D8D8D8" cx="385.524" cy="109.004" r="1.468"/><circle fill="#D8D8D8" cx="400.887" cy="109.004" r="1.468"/><circle fill="#D8D8D8" cx="416.249" cy="109.004" r="1.469"/><circle fill="#D8D8D8" cx="370.162" cy="32.193" r="1.468"/><circle fill="#D8D8D8" cx="431.611" cy="93.642" r="1.468"/><circle fill="#D8D8D8" cx="431.611" cy="109.004" r="1.468"/><circle fill="#D8D8D8" cx="1.468" cy="185.815" r="1.468"/><circle fill="#D8D8D8" cx="1.468" cy="201.178" r="1.468"/><circle fill="#D8D8D8" cx="1.468" cy="216.54" r="1.468"/><circle fill="#D8D8D8" cx="1.468" cy="231.902" r="1.468"/><circle fill="#D8D8D8" cx="16.83" cy="170.453" r="1.468"/><circle fill="#D8D8D8" cx="32.192" cy="170.453" r="1.468"/><circle fill="#D8D8D8" cx="47.555" cy="170.453" r="1.468"/><circle fill="#D8D8D8" cx="16.83" cy="185.815" r="1.468"/><circle fill="#D8D8D8" cx="32.192" cy="185.815" r="1.468"/><circle fill="#D8D8D8" cx="47.555" cy="185.815" r="1.468"/><circle fill="#D8D8D8" cx="16.83" cy="201.178" r="1.468"/><circle fill="#D8D8D8" cx="32.192" cy="201.178" r="1.468"/><circle fill="#D8D8D8" cx="47.555" cy="201.178" r="1.468"/><circle fill="#D8D8D8" cx="16.83" cy="216.54" r="1.468"/><circle fill="#D8D8D8" cx="32.192" cy="216.54" r="1.468"/><circle fill="#D8D8D8" cx="47.555" cy="216.54" r="1.468"/><circle fill="#D8D8D8" cx="62.917" cy="170.453" r="1.468"/><circle fill="#D8D8D8" cx="62.917" cy="185.815" r="1.468"/><circle fill="#D8D8D8" cx="62.917" cy="201.178" r="1.468"/><circle fill="#D8D8D8" cx="62.917" cy="216.54" r="1.468"/><circle fill="#D8D8D8" cx="16.83" cy="231.902" r="1.468"/><circle fill="#D8D8D8" cx="32.192" cy="231.902" r="1.468"/><circle fill="#D8D8D8" cx="47.555" cy="231.902" r="1.468"/><circle fill="#D8D8D8" cx="62.917" cy="231.902" r="1.468"/><circle fill="#D8D8D8" cx="32.192" cy="124.366" r="1.468"/><circle fill="#D8D8D8" cx="47.555" cy="124.366" r="1.468"/><circle fill="#D8D8D8" cx="16.83" cy="139.729" r="1.468"/><circle fill="#D8D8D8" cx="32.192" cy="139.729" r="1.468"/><circle fill="#D8D8D8" cx="47.555" cy="139.729" r="1.468"/><circle fill="#D8D8D8" cx="16.83" cy="155.091" r="1.468"/><circle fill="#D8D8D8" cx="32.192" cy="155.091" r="1.468"/><circle fill="#D8D8D8" cx="47.555" cy="155.091" r="1.468"/><circle fill="#D8D8D8" cx="62.917" cy="124.366" r="1.468"/><circle fill="#D8D8D8" cx="62.917" cy="139.729" r="1.468"/><circle fill="#D8D8D8" cx="62.917" cy="155.091" r="1.468"/><circle fill="#D8D8D8" cx="78.279" cy="170.453" r="1.468"/><circle fill="#D8D8D8" cx="93.642" cy="170.453" r="1.468"/><circle fill="#D8D8D8" cx="109.004" cy="170.453" r="1.468"/><circle fill="#D8D8D8" cx="78.279" cy="185.815" r="1.468"/><circle fill="#D8D8D8" cx="93.642" cy="185.815" r="1.468"/><circle fill="#D8D8D8" cx="109.004" cy="185.815" r="1.468"/><circle fill="#D8D8D8" cx="78.279" cy="201.178" r="1.468"/><circle fill="#D8D8D8" cx="93.642" cy="201.178" r="1.468"/><circle fill="#D8D8D8" cx="109.004" cy="201.178" r="1.468"/><circle fill="#D8D8D8" cx="78.279" cy="216.54" r="1.468"/><circle fill="#D8D8D8" cx="93.642" cy="216.54" r="1.468"/><circle fill="#D8D8D8" cx="109.004" cy="216.54" r="1.468"/><circle fill="#D8D8D8" cx="124.366" cy="170.453" r="1.468"/><circle fill="#D8D8D8" cx="124.366" cy="185.815" r="1.468"/><circle fill="#D8D8D8" cx="124.366" cy="201.178" r="1.468"/><circle fill="#D8D8D8" cx="124.366" cy="216.54" r="1.468"/><circle fill="#D8D8D8" cx="78.279" cy="231.902" r="1.468"/><circle fill="#D8D8D8" cx="93.642" cy="231.902" r="1.468"/><circle fill="#D8D8D8" cx="109.004" cy="231.902" r="1.468"/><circle fill="#D8D8D8" cx="124.366" cy="231.902" r="1.468"/><circle fill="#D8D8D8" cx="78.279" cy="124.366" r="1.468"/><circle fill="#D8D8D8" cx="93.642" cy="124.366" r="1.468"/><circle fill="#D8D8D8" cx="109.004" cy="124.366" r="1.468"/><circle fill="#D8D8D8" cx="78.279" cy="139.729" r="1.468"/><circle fill="#D8D8D8" cx="93.642" cy="139.729" r="1.468"/><circle fill="#D8D8D8" cx="124.365" cy="139.729" r="1.468"/><circle fill="#D8D8D8" cx="78.279" cy="155.091" r="1.468"/><circle fill="#D8D8D8" cx="93.642" cy="155.091" r="1.468"/><circle fill="#D8D8D8" cx="109.004" cy="155.091" r="1.468"/><circle fill="#D8D8D8" cx="124.366" cy="124.366" r="1.468"/><circle fill="#D8D8D8" cx="109.004" cy="139.729" r="1.468"/><circle fill="#D8D8D8" cx="124.366" cy="155.091" r="1.468"/><circle fill="#D8D8D8" cx="139.729" cy="170.453" r="1.468"/><circle fill="#D8D8D8" cx="155.09" cy="170.453" r="1.468"/><circle fill="#D8D8D8" cx="170.453" cy="170.453" r="1.468"/><circle fill="#D8D8D8" cx="139.729" cy="185.815" r="1.468"/><circle fill="#D8D8D8" cx="155.09" cy="185.815" r="1.468"/><circle fill="#D8D8D8" cx="139.729" cy="201.178" r="1.468"/><circle fill="#D8D8D8" cx="139.729" cy="216.54" r="1.468"/><circle fill="#D8D8D8" cx="139.729" cy="231.902" r="1.468"/><circle fill="#D8D8D8" cx="139.729" cy="124.366" r="1.468"/><circle fill="#D8D8D8" cx="155.09" cy="124.366" r="1.468"/><circle fill="#D8D8D8" cx="170.453" cy="124.366" r="1.468"/><circle fill="#D8D8D8" cx="139.729" cy="139.729" r="1.468"/><circle fill="#D8D8D8" cx="155.09" cy="139.729" r="1.468"/><circle fill="#D8D8D8" cx="170.453" cy="139.729" r="1.468"/><circle fill="#D8D8D8" cx="139.729" cy="155.091" r="1.468"/><circle fill="#D8D8D8" cx="155.09" cy="155.091" r="1.468"/><circle fill="#D8D8D8" cx="170.453" cy="155.091" r="1.468"/><circle fill="#D8D8D8" cx="185.815" cy="124.366" r="1.468"/><circle fill="#D8D8D8" cx="185.815" cy="139.729" r="1.468"/><circle fill="#D8D8D8" cx="185.815" cy="155.091" r="1.468"/><circle fill="#D8D8D8" cx="201.177" cy="124.366" r="1.468"/><circle fill="#D8D8D8" cx="216.54" cy="124.366" r="1.468"/><circle fill="#D8D8D8" cx="231.902" cy="124.366" r="1.468"/><circle fill="#D8D8D8" cx="201.177" cy="139.729" r="1.468"/><circle fill="#D8D8D8" cx="216.54" cy="139.729" r="1.468"/><circle fill="#D8D8D8" cx="231.902" cy="139.729" r="1.468"/><circle fill="#D8D8D8" cx="247.264" cy="124.366" r="1.468"/><circle fill="#D8D8D8" cx="247.264" cy="139.729" r="1.468"/><circle fill="#D8D8D8" cx="262.626" cy="124.366" r="1.468"/><circle fill="#D8D8D8" cx="277.989" cy="124.366" r="1.468"/><circle fill="#D8D8D8" cx="262.626" cy="139.729" r="1.468"/><circle fill="#D8D8D8" cx="277.989" cy="139.729" r="1.468"/><circle fill="#D8D8D8" cx="293.351" cy="124.366" r="1.468"/><circle fill="#D8D8D8" cx="293.351" cy="139.729" r="1.468"/><circle fill="#D8D8D8" cx="293.351" cy="155.091" r="1.468"/><circle fill="#D8D8D8" cx="308.713" cy="170.453" r="1.468"/><circle fill="#D8D8D8" cx="324.075" cy="170.453" r="1.468"/><circle fill="#D8D8D8" cx="339.438" cy="170.453" r="1.468"/><circle fill="#D8D8D8" cx="324.075" cy="185.815" r="1.468"/><circle fill="#D8D8D8" cx="339.438" cy="185.815" r="1.468"/><circle fill="#D8D8D8" cx="324.075" cy="201.178" r="1.468"/><circle fill="#D8D8D8" cx="339.438" cy="201.178" r="1.468"/><circle fill="#D8D8D8" cx="339.438" cy="216.54" r="1.468"/><circle fill="#D8D8D8" cx="354.8" cy="170.453" r="1.468"/><circle fill="#D8D8D8" cx="354.8" cy="185.815" r="1.468"/><circle fill="#D8D8D8" cx="354.8" cy="201.178" r="1.468"/><circle fill="#D8D8D8" cx="354.8" cy="216.54" r="1.468"/><circle fill="#D8D8D8" cx="339.438" cy="231.902" r="1.468"/><circle fill="#D8D8D8" cx="354.8" cy="231.902" r="1.468"/><circle fill="#D8D8D8" cx="308.713" cy="124.366" r="1.468"/><circle fill="#D8D8D8" cx="324.075" cy="124.366" r="1.468"/><circle fill="#D8D8D8" cx="339.438" cy="124.366" r="1.468"/><circle fill="#D8D8D8" cx="308.713" cy="139.729" r="1.468"/><circle fill="#D8D8D8" cx="324.075" cy="139.729" r="1.468"/><circle fill="#D8D8D8" cx="339.438" cy="139.729" r="1.468"/><circle fill="#D8D8D8" cx="308.713" cy="155.091" r="1.468"/><circle fill="#D8D8D8" cx="324.075" cy="155.091" r="1.468"/><circle fill="#D8D8D8" cx="339.438" cy="155.091" r="1.468"/><circle fill="#D8D8D8" cx="354.8" cy="124.366" r="1.468"/><circle fill="#D8D8D8" cx="354.8" cy="139.729" r="1.468"/><circle fill="#D8D8D8" cx="354.8" cy="155.091" r="1.468"/><circle fill="#D8D8D8" cx="370.162" cy="170.453" r="1.468"/><circle fill="#D8D8D8" cx="385.524" cy="170.453" r="1.468"/><circle fill="#D8D8D8" cx="400.887" cy="170.453" r="1.468"/><circle fill="#D8D8D8" cx="370.162" cy="185.815" r="1.468"/><circle fill="#D8D8D8" cx="385.524" cy="185.815" r="1.468"/><circle fill="#D8D8D8" cx="400.887" cy="185.815" r="1.468"/><circle fill="#D8D8D8" cx="370.162" cy="201.178" r="1.468"/><circle fill="#D8D8D8" cx="385.524" cy="201.178" r="1.468"/><circle fill="#D8D8D8" cx="400.887" cy="201.178" r="1.468"/><circle fill="#D8D8D8" cx="370.162" cy="216.54" r="1.468"/><circle fill="#D8D8D8" cx="385.524" cy="216.54" r="1.468"/><circle fill="#D8D8D8" cx="400.887" cy="216.54" r="1.468"/><circle fill="#D8D8D8" cx="416.249" cy="170.453" r="1.469"/><circle fill="#D8D8D8" cx="416.249" cy="185.815" r="1.469"/><circle fill="#D8D8D8" cx="416.249" cy="201.178" r="1.469"/><circle fill="#D8D8D8" cx="416.249" cy="216.54" r="1.469"/><circle fill="#D8D8D8" cx="370.162" cy="231.902" r="1.468"/><circle fill="#D8D8D8" cx="385.524" cy="231.902" r="1.468"/><circle fill="#D8D8D8" cx="400.887" cy="231.902" r="1.468"/><circle fill="#D8D8D8" cx="416.249" cy="231.902" r="1.469"/><circle fill="#D8D8D8" cx="370.162" cy="124.366" r="1.468"/><circle fill="#D8D8D8" cx="385.524" cy="124.366" r="1.468"/><circle fill="#D8D8D8" cx="400.887" cy="124.366" r="1.468"/><circle fill="#D8D8D8" cx="370.162" cy="139.729" r="1.468"/><circle fill="#D8D8D8" cx="385.524" cy="139.729" r="1.468"/><circle fill="#D8D8D8" cx="400.887" cy="139.729" r="1.468"/><circle fill="#D8D8D8" cx="370.162" cy="155.091" r="1.468"/><circle fill="#D8D8D8" cx="385.524" cy="155.091" r="1.468"/><circle fill="#D8D8D8" cx="400.887" cy="155.091" r="1.468"/><circle fill="#D8D8D8" cx="416.249" cy="124.366" r="1.469"/><circle fill="#D8D8D8" cx="416.249" cy="139.729" r="1.469"/><circle fill="#D8D8D8" cx="416.249" cy="155.091" r="1.469"/><circle fill="#D8D8D8" cx="431.611" cy="170.453" r="1.468"/><circle fill="#D8D8D8" cx="446.973" cy="170.453" r="1.468"/><circle fill="#D8D8D8" cx="462.335" cy="170.453" r="1.468"/><circle fill="#D8D8D8" cx="431.611" cy="185.815" r="1.468"/><circle fill="#D8D8D8" cx="446.973" cy="185.815" r="1.468"/><circle fill="#D8D8D8" cx="462.335" cy="185.815" r="1.468"/><circle fill="#D8D8D8" cx="431.611" cy="201.178" r="1.468"/><circle fill="#D8D8D8" cx="446.973" cy="201.178" r="1.468"/><circle fill="#D8D8D8" cx="462.335" cy="201.178" r="1.468"/><circle fill="#D8D8D8" cx="431.611" cy="216.54" r="1.468"/><circle fill="#D8D8D8" cx="446.973" cy="216.54" r="1.468"/><circle fill="#D8D8D8" cx="462.335" cy="216.54" r="1.468"/><circle fill="#D8D8D8" cx="477.698" cy="216.54" r="1.468"/><circle fill="#D8D8D8" cx="431.611" cy="231.902" r="1.468"/><circle fill="#D8D8D8" cx="448.441" cy="230.435" r="1.468"/><circle fill="#D8D8D8" cx="462.335" cy="231.902" r="1.468"/><circle fill="#D8D8D8" cx="477.698" cy="231.902" r="1.468"/><circle fill="#D8D8D8" cx="431.611" cy="124.366" r="1.468"/><circle fill="#D8D8D8" cx="446.973" cy="124.366" r="1.468"/><circle fill="#D8D8D8" cx="431.611" cy="139.729" r="1.468"/><circle fill="#D8D8D8" cx="446.973" cy="139.729" r="1.468"/><circle fill="#D8D8D8" cx="431.611" cy="155.091" r="1.468"/><circle fill="#D8D8D8" cx="446.973" cy="155.091" r="1.468"/><circle fill="#D8D8D8" cx="462.335" cy="155.091" r="1.468"/><circle fill="#D8D8D8" cx="1.468" cy="247.264" r="1.468"/><circle fill="#D8D8D8" cx="1.468" cy="262.626" r="1.468"/><circle fill="#D8D8D8" cx="1.468" cy="277.989" r="1.468"/><circle fill="#D8D8D8" cx="477.698" cy="185.815" r="1.468"/><circle fill="#D8D8D8" cx="477.698" cy="201.178" r="1.468"/><circle fill="#D8D8D8" cx="477.698" cy="262.626" r="1.468"/><circle fill="#D8D8D8" cx="477.698" cy="277.989" r="1.468"/><circle fill="#D8D8D8" cx="16.83" cy="293.351" r="1.468"/><circle fill="#D8D8D8" cx="32.192" cy="293.351" r="1.468"/><circle fill="#D8D8D8" cx="47.555" cy="293.351" r="1.468"/><circle fill="#D8D8D8" cx="16.83" cy="308.713" r="1.468"/><circle fill="#D8D8D8" cx="32.192" cy="308.713" r="1.468"/><circle fill="#D8D8D8" cx="47.555" cy="308.713" r="1.468"/><circle fill="#D8D8D8" cx="16.83" cy="324.075" r="1.468"/><circle fill="#D8D8D8" cx="32.192" cy="324.075" r="1.468"/><circle fill="#D8D8D8" cx="47.555" cy="324.075" r="1.468"/><circle fill="#D8D8D8" cx="32.192" cy="339.438" r="1.468"/><circle fill="#D8D8D8" cx="47.555" cy="339.438" r="1.468"/><circle fill="#D8D8D8" cx="62.917" cy="293.351" r="1.468"/><circle fill="#D8D8D8" cx="62.917" cy="308.713" r="1.468"/><circle fill="#D8D8D8" cx="62.917" cy="324.075" r="1.468"/><circle fill="#D8D8D8" cx="62.917" cy="339.438" r="1.468"/><circle fill="#D8D8D8" cx="32.192" cy="354.799" r="1.468"/><circle fill="#D8D8D8" cx="47.555" cy="354.799" r="1.468"/><circle fill="#D8D8D8" cx="62.917" cy="354.799" r="1.468"/><circle fill="#D8D8D8" cx="16.83" cy="247.264" r="1.468"/><circle fill="#D8D8D8" cx="32.192" cy="247.264" r="1.468"/><circle fill="#D8D8D8" cx="47.555" cy="247.264" r="1.468"/><circle fill="#D8D8D8" cx="16.83" cy="262.626" r="1.468"/><circle fill="#D8D8D8" cx="32.192" cy="262.626" r="1.468"/><circle fill="#D8D8D8" cx="47.555" cy="262.626" r="1.468"/><circle fill="#D8D8D8" cx="16.83" cy="277.989" r="1.468"/><circle fill="#D8D8D8" cx="32.192" cy="277.989" r="1.468"/><circle fill="#D8D8D8" cx="47.555" cy="277.989" r="1.468"/><circle fill="#D8D8D8" cx="62.917" cy="247.264" r="1.468"/><circle fill="#D8D8D8" cx="62.917" cy="262.626" r="1.468"/><circle fill="#D8D8D8" cx="62.917" cy="277.989" r="1.468"/><circle fill="#D8D8D8" cx="78.279" cy="293.351" r="1.468"/><circle fill="#D8D8D8" cx="93.642" cy="293.351" r="1.468"/><circle fill="#D8D8D8" cx="109.004" cy="293.351" r="1.468"/><circle fill="#D8D8D8" cx="78.279" cy="308.713" r="1.468"/><circle fill="#D8D8D8" cx="93.642" cy="308.713" r="1.468"/><circle fill="#D8D8D8" cx="109.004" cy="308.713" r="1.468"/><circle fill="#D8D8D8" cx="78.279" cy="324.075" r="1.468"/><circle fill="#D8D8D8" cx="93.642" cy="324.075" r="1.468"/><circle fill="#D8D8D8" cx="109.004" cy="324.075" r="1.468"/><circle fill="#D8D8D8" cx="78.279" cy="339.438" r="1.468"/><circle fill="#D8D8D8" cx="93.642" cy="339.438" r="1.468"/><circle fill="#D8D8D8" cx="109.004" cy="339.438" r="1.468"/><circle fill="#D8D8D8" cx="124.366" cy="293.351" r="1.468"/><circle fill="#D8D8D8" cx="124.366" cy="308.713" r="1.468"/><circle fill="#D8D8D8" cx="124.366" cy="324.075" r="1.468"/><circle fill="#D8D8D8" cx="124.366" cy="339.438" r="1.468"/><circle fill="#D8D8D8" cx="78.279" cy="354.799" r="1.468"/><circle fill="#D8D8D8" cx="93.642" cy="354.799" r="1.468"/><circle fill="#D8D8D8" cx="109.004" cy="354.799" r="1.468"/><circle fill="#D8D8D8" cx="124.366" cy="354.799" r="1.468"/><circle fill="#D8D8D8" cx="78.279" cy="247.264" r="1.468"/><circle fill="#D8D8D8" cx="93.642" cy="247.264" r="1.468"/><circle fill="#D8D8D8" cx="109.004" cy="247.264" r="1.468"/><circle fill="#D8D8D8" cx="78.279" cy="262.626" r="1.468"/><circle fill="#D8D8D8" cx="93.642" cy="262.626" r="1.468"/><circle fill="#D8D8D8" cx="109.004" cy="262.626" r="1.468"/><circle fill="#D8D8D8" cx="78.279" cy="277.989" r="1.468"/><circle fill="#D8D8D8" cx="93.642" cy="277.989" r="1.468"/><circle fill="#D8D8D8" cx="109.004" cy="277.989" r="1.468"/><circle fill="#D8D8D8" cx="124.366" cy="247.264" r="1.468"/><circle fill="#D8D8D8" cx="124.366" cy="262.626" r="1.468"/><circle fill="#D8D8D8" cx="124.366" cy="277.989" r="1.468"/><circle fill="#D8D8D8" cx="139.729" cy="293.351" r="1.468"/><circle fill="#D8D8D8" cx="155.09" cy="293.351" r="1.468"/><circle fill="#D8D8D8" cx="170.453" cy="293.351" r="1.468"/><circle fill="#D8D8D8" cx="139.729" cy="308.713" r="1.468"/><circle fill="#D8D8D8" cx="155.09" cy="308.713" r="1.468"/><circle fill="#D8D8D8" cx="170.453" cy="308.713" r="1.468"/><circle fill="#D8D8D8" cx="139.729" cy="324.075" r="1.468"/><circle fill="#D8D8D8" cx="155.09" cy="324.075" r="1.468"/><circle fill="#D8D8D8" cx="170.453" cy="324.075" r="1.468"/><circle fill="#D8D8D8" cx="139.729" cy="339.438" r="1.468"/><circle fill="#D8D8D8" cx="155.09" cy="339.438" r="1.468"/><circle fill="#D8D8D8" cx="170.453" cy="339.438" r="1.468"/><circle fill="#D8D8D8" cx="185.815" cy="308.713" r="1.468"/><circle fill="#D8D8D8" cx="185.815" cy="324.075" r="1.468"/><circle fill="#D8D8D8" cx="185.815" cy="339.438" r="1.468"/><circle fill="#D8D8D8" cx="139.729" cy="354.799" r="1.468"/><circle fill="#D8D8D8" cx="155.09" cy="354.799" r="1.468"/><circle fill="#D8D8D8" cx="170.453" cy="354.799" r="1.468"/><circle fill="#D8D8D8" cx="185.815" cy="354.799" r="1.468"/><circle fill="#D8D8D8" cx="139.729" cy="247.264" r="1.468"/><circle fill="#D8D8D8" cx="139.729" cy="262.626" r="1.468"/><circle fill="#D8D8D8" cx="139.729" cy="277.989" r="1.468"/><circle fill="#D8D8D8" cx="155.09" cy="277.989" r="1.468"/><circle fill="#D8D8D8" cx="201.177" cy="324.075" r="1.468"/><circle fill="#D8D8D8" cx="216.54" cy="324.075" r="1.468"/><circle fill="#D8D8D8" cx="231.902" cy="324.075" r="1.468"/><circle fill="#D8D8D8" cx="201.177" cy="339.438" r="1.468"/><circle fill="#D8D8D8" cx="216.54" cy="339.438" r="1.468"/><circle fill="#D8D8D8" cx="231.902" cy="339.438" r="1.468"/><circle fill="#D8D8D8" cx="247.264" cy="324.075" r="1.468"/><circle fill="#D8D8D8" cx="247.264" cy="339.438" r="1.468"/><circle fill="#D8D8D8" cx="201.177" cy="354.799" r="1.468"/><circle fill="#D8D8D8" cx="216.54" cy="354.799" r="1.468"/><circle fill="#D8D8D8" cx="231.902" cy="354.799" r="1.468"/><circle fill="#D8D8D8" cx="247.264" cy="354.799" r="1.468"/><circle fill="#D8D8D8" cx="262.626" cy="324.075" r="1.468"/><circle fill="#D8D8D8" cx="277.989" cy="324.075" r="1.468"/><circle fill="#D8D8D8" cx="262.626" cy="339.438" r="1.468"/><circle fill="#D8D8D8" cx="277.989" cy="339.438" r="1.468"/><circle fill="#D8D8D8" cx="293.351" cy="308.713" r="1.468"/><circle fill="#D8D8D8" cx="293.351" cy="324.075" r="1.468"/><circle fill="#D8D8D8" cx="293.351" cy="339.438" r="1.468"/><circle fill="#D8D8D8" cx="262.626" cy="354.799" r="1.468"/><circle fill="#D8D8D8" cx="277.989" cy="354.799" r="1.468"/><circle fill="#D8D8D8" cx="293.351" cy="354.799" r="1.468"/><circle fill="#D8D8D8" cx="308.713" cy="293.351" r="1.468"/><circle fill="#D8D8D8" cx="324.075" cy="293.351" r="1.468"/><circle fill="#D8D8D8" cx="339.438" cy="293.351" r="1.468"/><circle fill="#D8D8D8" cx="308.713" cy="308.713" r="1.468"/><circle fill="#D8D8D8" cx="324.075" cy="308.713" r="1.468"/><circle fill="#D8D8D8" cx="339.438" cy="308.713" r="1.468"/><circle fill="#D8D8D8" cx="308.713" cy="324.075" r="1.468"/><circle fill="#D8D8D8" cx="324.075" cy="324.075" r="1.468"/><circle fill="#D8D8D8" cx="339.438" cy="324.075" r="1.468"/><circle fill="#D8D8D8" cx="308.713" cy="339.438" r="1.468"/><circle fill="#D8D8D8" cx="324.075" cy="339.438" r="1.468"/><circle fill="#D8D8D8" cx="339.438" cy="339.438" r="1.468"/><circle fill="#D8D8D8" cx="354.8" cy="293.351" r="1.468"/><circle fill="#D8D8D8" cx="354.8" cy="308.713" r="1.468"/><circle fill="#D8D8D8" cx="354.8" cy="324.075" r="1.468"/><circle fill="#D8D8D8" cx="354.8" cy="339.438" r="1.468"/><circle fill="#D8D8D8" cx="308.713" cy="354.799" r="1.468"/><circle fill="#D8D8D8" cx="324.075" cy="354.799" r="1.468"/><circle fill="#D8D8D8" cx="339.438" cy="354.799" r="1.468"/><circle fill="#D8D8D8" cx="354.8" cy="354.799" r="1.468"/><circle fill="#D8D8D8" cx="339.438" cy="247.264" r="1.468"/><circle fill="#D8D8D8" cx="324.075" cy="262.626" r="1.468"/><circle fill="#D8D8D8" cx="339.438" cy="262.626" r="1.468"/><circle fill="#D8D8D8" cx="324.075" cy="277.989" r="1.468"/><circle fill="#D8D8D8" cx="339.438" cy="277.989" r="1.468"/><circle fill="#D8D8D8" cx="354.8" cy="247.264" r="1.468"/><circle fill="#D8D8D8" cx="354.8" cy="262.626" r="1.468"/><circle fill="#D8D8D8" cx="354.8" cy="277.989" r="1.468"/><circle fill="#D8D8D8" cx="370.162" cy="293.351" r="1.468"/><circle fill="#D8D8D8" cx="385.524" cy="293.351" r="1.468"/><circle fill="#D8D8D8" cx="400.887" cy="293.351" r="1.468"/><circle fill="#D8D8D8" cx="370.162" cy="308.713" r="1.468"/><circle fill="#D8D8D8" cx="385.524" cy="308.713" r="1.468"/><circle fill="#D8D8D8" cx="400.887" cy="308.713" r="1.468"/><circle fill="#D8D8D8" cx="370.162" cy="324.075" r="1.468"/><circle fill="#D8D8D8" cx="385.524" cy="324.075" r="1.468"/><circle fill="#D8D8D8" cx="400.887" cy="324.075" r="1.468"/><circle fill="#D8D8D8" cx="370.162" cy="339.438" r="1.468"/><circle fill="#D8D8D8" cx="385.524" cy="339.438" r="1.468"/><circle fill="#D8D8D8" cx="400.887" cy="339.438" r="1.468"/><circle fill="#D8D8D8" cx="416.249" cy="293.351" r="1.469"/><circle fill="#D8D8D8" cx="416.249" cy="308.713" r="1.469"/><circle fill="#D8D8D8" cx="416.249" cy="324.075" r="1.469"/><circle fill="#D8D8D8" cx="416.249" cy="339.438" r="1.469"/><circle fill="#D8D8D8" cx="370.162" cy="354.799" r="1.468"/><circle fill="#D8D8D8" cx="385.524" cy="354.799" r="1.468"/><circle fill="#D8D8D8" cx="400.887" cy="354.799" r="1.468"/><circle fill="#D8D8D8" cx="416.249" cy="354.799" r="1.469"/><circle fill="#D8D8D8" cx="370.162" cy="247.264" r="1.468"/><circle fill="#D8D8D8" cx="385.524" cy="247.264" r="1.468"/><circle fill="#D8D8D8" cx="400.887" cy="247.264" r="1.468"/><circle fill="#D8D8D8" cx="370.162" cy="262.626" r="1.468"/><circle fill="#D8D8D8" cx="385.524" cy="262.626" r="1.468"/><circle fill="#D8D8D8" cx="400.887" cy="262.626" r="1.468"/><circle fill="#D8D8D8" cx="370.162" cy="277.989" r="1.468"/><circle fill="#D8D8D8" cx="385.524" cy="277.989" r="1.468"/><circle fill="#D8D8D8" cx="400.887" cy="277.989" r="1.468"/><circle fill="#D8D8D8" cx="416.249" cy="247.264" r="1.469"/><circle fill="#D8D8D8" cx="416.249" cy="262.626" r="1.469"/><circle fill="#D8D8D8" cx="416.249" cy="277.989" r="1.469"/><circle fill="#D8D8D8" cx="431.611" cy="293.351" r="1.468"/><circle fill="#D8D8D8" cx="446.973" cy="293.351" r="1.468"/><circle fill="#D8D8D8" cx="462.335" cy="293.351" r="1.468"/><circle fill="#D8D8D8" cx="431.611" cy="308.713" r="1.468"/><circle fill="#D8D8D8" cx="446.973" cy="308.713" r="1.468"/><circle fill="#D8D8D8" cx="462.335" cy="308.713" r="1.468"/><circle fill="#D8D8D8" cx="431.611" cy="324.075" r="1.468"/><circle fill="#D8D8D8" cx="446.973" cy="324.075" r="1.468"/><circle fill="#D8D8D8" cx="431.611" cy="339.438" r="1.468"/><circle fill="#D8D8D8" cx="446.973" cy="339.438" r="1.468"/><circle fill="#D8D8D8" cx="431.611" cy="354.799" r="1.468"/><circle fill="#D8D8D8" cx="431.611" cy="247.264" r="1.468"/><circle fill="#D8D8D8" cx="446.973" cy="247.264" r="1.468"/><circle fill="#D8D8D8" cx="462.335" cy="247.264" r="1.468"/><circle fill="#D8D8D8" cx="431.611" cy="262.626" r="1.468"/><circle fill="#D8D8D8" cx="446.973" cy="262.626" r="1.468"/><circle fill="#D8D8D8" cx="462.335" cy="262.626" r="1.468"/><circle fill="#D8D8D8" cx="431.611" cy="277.989" r="1.468"/><circle fill="#D8D8D8" cx="446.973" cy="277.989" r="1.468"/><circle fill="#D8D8D8" cx="462.335" cy="277.989" r="1.468"/><circle fill="#D8D8D8" cx="477.698" cy="247.264" r="1.468"/><circle fill="#D8D8D8" cx="47.555" cy="370.163" r="1.468"/><circle fill="#D8D8D8" cx="62.917" cy="370.163" r="1.468"/><circle fill="#D8D8D8" cx="62.917" cy="385.524" r="1.468"/><circle fill="#D8D8D8" cx="93.642" cy="416.249" r="1.468"/><circle fill="#D8D8D8" cx="109.004" cy="416.249" r="1.468"/><circle fill="#D8D8D8" cx="109.004" cy="431.611" r="1.468"/><circle fill="#D8D8D8" cx="124.366" cy="416.249" r="1.468"/><circle fill="#D8D8D8" cx="124.366" cy="431.611" r="1.468"/><circle fill="#D8D8D8" cx="78.279" cy="370.163" r="1.468"/><circle fill="#D8D8D8" cx="93.642" cy="370.163" r="1.468"/><circle fill="#D8D8D8" cx="109.004" cy="370.163" r="1.468"/><circle fill="#D8D8D8" cx="78.279" cy="385.524" r="1.468"/><circle fill="#D8D8D8" cx="93.642" cy="385.524" r="1.468"/><circle fill="#D8D8D8" cx="109.004" cy="385.524" r="1.468"/><circle fill="#D8D8D8" cx="78.279" cy="400.887" r="1.468"/><circle fill="#D8D8D8" cx="93.642" cy="400.887" r="1.468"/><circle fill="#D8D8D8" cx="109.004" cy="400.887" r="1.468"/><circle fill="#D8D8D8" cx="124.366" cy="370.163" r="1.468"/><circle fill="#D8D8D8" cx="124.366" cy="385.524" r="1.468"/><circle fill="#D8D8D8" cx="124.366" cy="400.887" r="1.468"/><circle fill="#D8D8D8" cx="139.729" cy="416.249" r="1.468"/><circle fill="#D8D8D8" cx="155.09" cy="416.249" r="1.468"/><circle fill="#D8D8D8" cx="170.453" cy="416.249" r="1.468"/><circle fill="#D8D8D8" cx="139.729" cy="431.611" r="1.468"/><circle fill="#D8D8D8" cx="155.09" cy="431.611" r="1.468"/><circle fill="#D8D8D8" cx="170.453" cy="431.611" r="1.468"/><circle fill="#D8D8D8" cx="139.729" cy="446.972" r="1.468"/><circle fill="#D8D8D8" cx="155.09" cy="446.972" r="1.468"/><circle fill="#D8D8D8" cx="170.453" cy="446.972" r="1.468"/><circle fill="#D8D8D8" cx="170.453" cy="462.336" r="1.468"/><circle fill="#D8D8D8" cx="185.815" cy="416.249" r="1.468"/><circle fill="#D8D8D8" cx="185.815" cy="431.611" r="1.468"/><circle fill="#D8D8D8" cx="185.815" cy="446.972" r="1.468"/><circle fill="#D8D8D8" cx="185.815" cy="462.336" r="1.468"/><circle fill="#D8D8D8" cx="139.729" cy="370.163" r="1.468"/><circle fill="#D8D8D8" cx="155.09" cy="370.163" r="1.468"/><circle fill="#D8D8D8" cx="170.453" cy="370.163" r="1.468"/><circle fill="#D8D8D8" cx="139.729" cy="385.524" r="1.468"/><circle fill="#D8D8D8" cx="155.09" cy="385.524" r="1.468"/><circle fill="#D8D8D8" cx="170.453" cy="385.524" r="1.468"/><circle fill="#D8D8D8" cx="139.729" cy="400.887" r="1.468"/><circle fill="#D8D8D8" cx="155.09" cy="400.887" r="1.468"/><circle fill="#D8D8D8" cx="170.453" cy="400.887" r="1.468"/><circle fill="#D8D8D8" cx="185.815" cy="370.163" r="1.468"/><circle fill="#D8D8D8" cx="185.815" cy="385.524" r="1.468"/><circle fill="#D8D8D8" cx="185.815" cy="400.887" r="1.468"/><circle fill="#D8D8D8" cx="201.177" cy="416.249" r="1.468"/><circle fill="#D8D8D8" cx="216.54" cy="416.249" r="1.468"/><circle fill="#D8D8D8" cx="231.902" cy="416.249" r="1.468"/><circle fill="#D8D8D8" cx="201.177" cy="431.611" r="1.468"/><circle fill="#D8D8D8" cx="216.54" cy="431.611" r="1.468"/><circle fill="#D8D8D8" cx="231.902" cy="431.611" r="1.468"/><circle fill="#D8D8D8" cx="201.177" cy="446.972" r="1.468"/><circle fill="#D8D8D8" cx="216.54" cy="446.972" r="1.468"/><circle fill="#D8D8D8" cx="231.902" cy="446.972" r="1.468"/><circle fill="#D8D8D8" cx="201.177" cy="462.336" r="1.468"/><circle fill="#D8D8D8" cx="216.54" cy="462.336" r="1.468"/><circle fill="#D8D8D8" cx="231.902" cy="462.336" r="1.468"/><circle fill="#D8D8D8" cx="247.264" cy="416.249" r="1.468"/><circle fill="#D8D8D8" cx="247.264" cy="431.611" r="1.468"/><circle fill="#D8D8D8" cx="247.264" cy="446.972" r="1.468"/><circle fill="#D8D8D8" cx="247.264" cy="462.336" r="1.468"/><circle fill="#D8D8D8" cx="201.177" cy="370.163" r="1.468"/><circle fill="#D8D8D8" cx="216.54" cy="370.163" r="1.468"/><circle fill="#D8D8D8" cx="231.902" cy="370.163" r="1.468"/><circle fill="#D8D8D8" cx="201.177" cy="385.524" r="1.468"/><circle fill="#D8D8D8" cx="216.54" cy="385.524" r="1.468"/><circle fill="#D8D8D8" cx="231.902" cy="385.524" r="1.468"/><circle fill="#D8D8D8" cx="201.177" cy="400.887" r="1.468"/><circle fill="#D8D8D8" cx="216.54" cy="400.887" r="1.468"/><circle fill="#D8D8D8" cx="231.902" cy="400.887" r="1.468"/><circle fill="#D8D8D8" cx="247.264" cy="370.163" r="1.468"/><circle fill="#D8D8D8" cx="247.264" cy="385.524" r="1.468"/><circle fill="#D8D8D8" cx="247.264" cy="400.887" r="1.468"/><circle fill="#D8D8D8" cx="262.626" cy="416.249" r="1.468"/><circle fill="#D8D8D8" cx="277.989" cy="416.249" r="1.468"/><circle fill="#D8D8D8" cx="262.626" cy="431.611" r="1.468"/><circle fill="#D8D8D8" cx="277.989" cy="431.611" r="1.468"/><circle fill="#D8D8D8" cx="262.626" cy="446.972" r="1.468"/><circle fill="#D8D8D8" cx="277.989" cy="446.972" r="1.468"/><circle fill="#D8D8D8" cx="262.626" cy="462.336" r="1.468"/><circle fill="#D8D8D8" cx="277.989" cy="462.336" r="1.468"/><circle fill="#D8D8D8" cx="293.351" cy="416.249" r="1.468"/><circle fill="#D8D8D8" cx="293.351" cy="431.611" r="1.468"/><circle fill="#D8D8D8" cx="293.351" cy="446.972" r="1.468"/><circle fill="#D8D8D8" cx="293.351" cy="462.336" r="1.468"/><circle fill="#D8D8D8" cx="308.713" cy="462.336" r="1.468"/><circle fill="#D8D8D8" cx="262.626" cy="370.163" r="1.468"/><circle fill="#D8D8D8" cx="277.989" cy="370.163" r="1.468"/><circle fill="#D8D8D8" cx="262.626" cy="385.524" r="1.468"/><circle fill="#D8D8D8" cx="277.989" cy="385.524" r="1.468"/><circle fill="#D8D8D8" cx="262.626" cy="400.887" r="1.468"/><circle fill="#D8D8D8" cx="277.989" cy="400.887" r="1.468"/><circle fill="#D8D8D8" cx="293.351" cy="370.163" r="1.468"/><circle fill="#D8D8D8" cx="293.351" cy="385.524" r="1.468"/><circle fill="#D8D8D8" cx="293.351" cy="400.887" r="1.468"/><circle fill="#D8D8D8" cx="308.713" cy="416.249" r="1.468"/><circle fill="#D8D8D8" cx="324.075" cy="416.249" r="1.468"/><circle fill="#D8D8D8" cx="339.438" cy="416.249" r="1.468"/><circle fill="#D8D8D8" cx="308.713" cy="431.611" r="1.468"/><circle fill="#D8D8D8" cx="324.075" cy="431.611" r="1.468"/><circle fill="#D8D8D8" cx="339.438" cy="431.611" r="1.468"/><circle fill="#D8D8D8" cx="308.713" cy="446.972" r="1.468"/><circle fill="#D8D8D8" cx="324.075" cy="446.972" r="1.468"/><circle fill="#D8D8D8" cx="339.438" cy="446.972" r="1.468"/><circle fill="#D8D8D8" cx="354.8" cy="416.249" r="1.468"/><circle fill="#D8D8D8" cx="354.8" cy="431.611" r="1.468"/><circle fill="#D8D8D8" cx="308.713" cy="370.163" r="1.468"/><circle fill="#D8D8D8" cx="324.075" cy="370.163" r="1.468"/><circle fill="#D8D8D8" cx="339.438" cy="370.163" r="1.468"/><circle fill="#D8D8D8" cx="308.713" cy="385.524" r="1.468"/><circle fill="#D8D8D8" cx="324.075" cy="385.524" r="1.468"/><circle fill="#D8D8D8" cx="339.438" cy="385.524" r="1.468"/><circle fill="#D8D8D8" cx="308.713" cy="400.887" r="1.468"/><circle fill="#D8D8D8" cx="324.075" cy="400.887" r="1.468"/><circle fill="#D8D8D8" cx="339.438" cy="400.887" r="1.468"/><circle fill="#D8D8D8" cx="354.8" cy="370.163" r="1.468"/><circle fill="#D8D8D8" cx="354.8" cy="385.524" r="1.468"/><circle fill="#D8D8D8" cx="354.8" cy="400.887" r="1.468"/><circle fill="#D8D8D8" cx="370.162" cy="416.249" r="1.468"/><circle fill="#D8D8D8" cx="385.524" cy="416.249" r="1.468"/><circle fill="#D8D8D8" cx="370.162" cy="431.611" r="1.468"/><circle fill="#D8D8D8" cx="370.162" cy="370.163" r="1.468"/><circle fill="#D8D8D8" cx="385.524" cy="370.163" r="1.468"/><circle fill="#D8D8D8" cx="400.887" cy="370.163" r="1.468"/><circle fill="#D8D8D8" cx="370.162" cy="385.524" r="1.468"/><circle fill="#D8D8D8" cx="385.524" cy="385.524" r="1.468"/><circle fill="#D8D8D8" cx="400.887" cy="385.524" r="1.468"/><circle fill="#D8D8D8" cx="370.162" cy="400.887" r="1.468"/><circle fill="#D8D8D8" cx="385.524" cy="400.887" r="1.468"/><circle fill="#D8D8D8" cx="400.887" cy="400.887" r="1.468"/><circle fill="#D8D8D8" cx="416.249" cy="370.163" r="1.469"/><circle fill="#D8D8D8" cx="416.249" cy="385.524" r="1.469"/><circle fill="#D8D8D8" cx="431.611" cy="370.163" r="1.468"/></svg>