<svg xmlns="http://www.w3.org/2000/svg" width="154.172" height="154.173"><circle fill="none" stroke="#FF4612" stroke-miterlimit="10" cx="77.085" cy="77.086" r="76.586"/><circle fill="none" stroke="#FF4612" stroke-miterlimit="10" cx="77.085" cy="77.986" r="3"/><g fill="none" stroke="#FF4612" stroke-miterlimit="10"><path d="M74.333 79.636l-7.999 4.517M79.837 79.636l7.999 4.517"/></g><path fill="none" stroke="#FF4612" stroke-miterlimit="10" d="M77.085 74.986v-9.708M41.6 57.439l15.625 8.789"/><circle fill="none" stroke="#FF4612" stroke-miterlimit="10" cx="41.457" cy="57.278" r=".469"/><g fill="none" stroke="#FF4612" stroke-miterlimit="10"><circle cx="51.605" cy="48.319" r=".469"/><circle cx="102.564" cy="48.319" r=".469"/></g><g fill="none" stroke="#FF4612" stroke-miterlimit="10"><circle cx="38.571" cy="70.601" r=".469"/><circle cx="115.599" cy="70.601" r=".469"/></g><path fill="none" stroke="#FF4612" stroke-miterlimit="10" d="M112.676 57.435l-15.625 8.789"/><circle fill="none" stroke="#FF4612" stroke-miterlimit="10" cx="112.818" cy="57.278" r=".469"/><circle fill="none" stroke="#FF4612" stroke-miterlimit="10" cx="77.085" cy="119.215" r=".469"/><circle fill="none" stroke="#FF4612" stroke-miterlimit="10" cx="77.085" cy="93.021" r=".469"/><g fill="none" stroke="#FF4612" stroke-miterlimit="10"><circle cx="64.569" cy="70.601" r=".469"/><circle cx="89.601" cy="70.601" r=".469"/></g><g fill="none" stroke="#FF4612" stroke-miterlimit="10"><circle cx="64.569" cy="114.934" r=".469"/><circle cx="89.601" cy="114.934" r=".469"/></g><path fill="none" stroke="#FF4612" stroke-miterlimit="10" d="M77.085 119.215v-18"/><g fill="none" stroke="#FF4612" stroke-miterlimit="10"><path d="M80.896 49.219a3.811 3.811 0 01-3.811 3.811h0a3.811 3.811 0 01-3.811-3.811v-4.441a3.811 3.811 0 013.811-3.811h0a3.811 3.811 0 013.811 3.811v4.441zM70.084 62.934v-4.177c0-3.069 3.135-5.557 7.001-5.557h0c3.866 0 7.001 2.487 7.001 5.557v4.135"/><circle cx="77.085" cy="48.866" r="15.928"/></g><g fill="none" stroke="#FF4612" stroke-miterlimit="10"><path d="M105.17 92.773a3.811 3.811 0 01-3.811 3.811h0a3.811 3.811 0 01-3.811-3.811v-4.441a3.811 3.811 0 013.811-3.811h0a3.811 3.811 0 013.811 3.811v4.441zM94.358 106.488v-4.177c0-3.069 3.135-5.557 7.001-5.557h0c3.866 0 7.001 2.487 7.001 5.557v4.135"/><circle cx="101.359" cy="92.419" r="15.928"/><g><path d="M56.621 92.773a3.811 3.811 0 01-3.811 3.811h0a3.811 3.811 0 01-3.811-3.811v-4.441a3.811 3.811 0 013.811-3.811h0a3.811 3.811 0 013.811 3.811v4.441zM45.81 106.488v-4.177c0-3.069 3.135-5.557 7.001-5.557h0c3.866 0 7.001 2.487 7.001 5.557v4.135"/><circle cx="52.811" cy="92.419" r="15.928"/></g></g></svg>