<svg xmlns="http://www.w3.org/2000/svg" width="154.172" height="154.173"><circle fill="none" stroke="#FF4612" stroke-miterlimit="10" cx="77.086" cy="77.086" r="76.586"/><g fill="none" stroke="#FF4612" stroke-miterlimit="10"><path d="M40.043 74.048l7.5 7.912h27.125v24.702l-2.676 4.917M114.348 60.265l-7.5-7.912H79.504v-8.298s1.148-.955 1.148-2.407a3.584 3.584 0 00-3.584-3.583"/><path d="M114.129 59.721l-7.5 7.912H79.504v39.029l2.676 4.917M77.082 116.109h27.66M77.082 116.109H49.416M60.576 74.048h7.623M60.576 74.048h-7.627M93.701 59.721h7.623M93.701 59.721h-7.627"/><circle cx="54.576" cy="102.774" r=".469"/><circle cx="61.723" cy="102.774" r=".469"/><circle cx="47.432" cy="102.774" r=".469"/><circle cx="99.908" cy="40.976" r=".469"/><circle cx="107.055" cy="40.976" r=".469"/><circle cx="92.762" cy="40.976" r=".469"/><circle cx="104.047" cy="104.892" r=".469"/><circle cx="96.9" cy="104.892" r=".469"/><path d="M51.199 91.829h7.5M51.199 96.829h7.5"/><circle cx="54.574" cy="48.079" r="4.875"/><g><path d="M99.547 87.661v3.586M99.547 87.651v-3.586"/><g><path d="M99.547 87.655h3.564M99.547 87.655h-3.565"/></g></g></g><path fill="none" stroke="#FF4612" stroke-miterlimit="10" d="M40.191 74.204l7.133-7.525h27.344V44.054s-1.146-.979-1.182-2.401c-.045-1.75 1.449-3.589 3.592-3.589"/></svg>