<svg xmlns="http://www.w3.org/2000/svg" width="154.172" height="154.172"><path fill="none" stroke="#FF4612" stroke-miterlimit="10" d="M56.207 52.903h39.281v4.292H56.207zM44.68 43.744v3.124M52.172 73.601v5.017"/><g fill="none" stroke="#FF4612" stroke-miterlimit="10"><path d="M75.664 37.971v3.586M75.664 37.962v-3.586"/></g><g fill="none" stroke="#FF4612" stroke-miterlimit="10"><path d="M75.664 37.966h3.565M75.664 37.966H72.1"/></g><g fill="none" stroke="#FF4612" stroke-miterlimit="10"><path d="M34.226 66.067v3.586M34.226 66.057v-3.586"/><g><path d="M34.226 66.062h3.564M34.226 66.062h-3.565"/></g></g><path fill="none" stroke="#FF4612" stroke-miterlimit="10" d="M46.145 102.827v-5.621h8.062L40.984 83.137 27.832 97.206h8v14.955M108.025 84.497V71.495h-8.061l13.224-14.068 13.151 14.068h-8v38.377M68.388 82.437l-8.325-8.616V57.674"/><path fill="none" stroke="#FF4612" stroke-miterlimit="10" d="M68.289 81.801l-8.325 8.617v16.043M83.506 82.437l8.325-8.616V57.674"/><path fill="none" stroke="#FF4612" stroke-miterlimit="10" d="M83.604 81.801l8.326 8.617v16.043M97.672 82.292v6.201M107.839 94.784v4.16M75.749 119.778H34.024M75.649 119.778h41.725M75.749 113.372H50.582l-3.9 6.218"/><path fill="none" stroke="#FF4612" stroke-miterlimit="10" d="M75.649 113.372h25.167l3.901 6.218M75.749 106.961h-18.5l-2.917 6.229"/><path fill="none" stroke="#FF4612" stroke-miterlimit="10" d="M75.649 106.961h18.499l2.918 6.229"/><circle fill="none" stroke="#FF4612" stroke-miterlimit="10" cx="77.086" cy="77.086" r="76.586"/><circle fill="none" stroke="#FF4612" stroke-miterlimit="10" cx="75.848" cy="76.376" r=".469"/><circle fill="none" stroke="#FF4612" stroke-miterlimit="10" cx="75.848" cy="82.115" r=".469"/><g fill="none" stroke="#FF4612" stroke-miterlimit="10"><circle cx="72.106" cy="70.639" r=".469"/><circle cx="79.59" cy="70.639" r=".469"/></g><g fill="none" stroke="#FF4612" stroke-miterlimit="10"><circle cx="68.364" cy="64.902" r=".469"/><circle cx="75.848" cy="64.902" r=".469"/><circle cx="83.331" cy="64.902" r=".469"/></g><circle fill="none" stroke="#FF4612" stroke-miterlimit="10" cx="75.848" cy="87.854" r=".469"/><g fill="none" stroke="#FF4612" stroke-miterlimit="10"><circle cx="79.59" cy="93.59" r=".469"/><circle cx="72.105" cy="93.59" r=".469"/></g><g fill="none" stroke="#FF4612" stroke-miterlimit="10"><circle cx="83.331" cy="99.328" r=".469"/><circle cx="75.848" cy="99.327" r=".469"/><circle cx="68.364" cy="99.327" r=".469"/></g></svg>